<?xml version="1.0" standalone="no"?>
<!DOCTYPE svg PUBLIC "-//W3C//DTD SVG 20010904//EN"
 "http://www.w3.org/TR/2001/REC-SVG-20010904/DTD/svg10.dtd">
<svg version="1.0" xmlns="http://www.w3.org/2000/svg"
 width="500.000000pt" height="500.000000pt" viewBox="0 0 500.000000 500.000000"
 preserveAspectRatio="xMidYMid meet">

<g transform="translate(0.000000,500.000000) scale(0.100000,-0.100000)"
fill="#000000" stroke="none">
<path d="M2335 4150 c3 -5 10 -10 16 -10 5 0 9 5 9 10 0 6 -7 10 -16 10 -8 0
-12 -4 -9 -10z"/>
<path d="M2383 4153 c7 -7 159 -4 166 3 2 2 -35 4 -84 4 -49 0 -85 -3 -82 -7z"/>
<path d="M2600 4156 c0 -2 14 -6 30 -8 17 -3 30 -1 30 4 0 4 -13 8 -30 8 -16
0 -30 -2 -30 -4z"/>
<path d="M2230 4140 c-94 -17 -193 -49 -150 -50 8 0 33 5 55 12 22 6 45 12 50
13 52 6 106 19 111 26 6 10 -1 10 -66 -1z"/>
<path d="M2685 4140 c25 -11 65 -12 65 -2 0 4 -19 8 -43 9 -31 1 -37 -1 -22
-7z"/>
<path d="M2780 4130 c0 -5 12 -10 28 -10 21 0 24 2 12 10 -20 13 -40 13 -40 0z"/>
<path d="M2860 4111 c0 -4 26 -16 58 -27 31 -10 59 -22 62 -25 11 -13 110 -58
110 -49 0 12 -51 47 -92 64 -56 23 -138 45 -138 37z"/>
<path d="M1973 4071 c-29 -9 -58 -22 -65 -29 -7 -7 -17 -12 -23 -12 -6 0 -18
-6 -26 -12 -8 -7 -12 -12 -10 -11 2 2 10 -2 17 -7 8 -8 16 -6 27 5 9 8 23 15
32 15 22 0 75 28 75 40 0 5 7 6 17 3 10 -4 14 -2 9 5 -3 6 3 12 16 15 19 3 19
4 3 5 -11 0 -44 -8 -72 -17z m-23 -31 c0 -5 -4 -10 -10 -10 -5 0 -10 5 -10 10
0 6 5 10 10 10 6 0 10 -4 10 -10z"/>
<path d="M2588 4013 c7 -3 16 -2 19 1 4 3 -2 6 -13 5 -11 0 -14 -3 -6 -6z"/>
<path d="M3100 4000 c0 -5 5 -10 12 -10 6 0 20 -8 30 -17 15 -14 19 -14 16 -3
-5 25 -58 52 -58 30z"/>
<path d="M1793 3983 c-18 -9 -33 -20 -33 -25 0 -4 -5 -8 -11 -8 -6 0 -37 -21
-69 -47 -32 -27 -85 -70 -119 -96 -34 -27 -58 -54 -54 -60 3 -5 2 -7 -4 -4 -5
3 -27 -15 -48 -41 -22 -26 -43 -49 -47 -50 -17 -7 -78 -114 -72 -124 4 -7 3
-8 -4 -4 -17 10 -34 -28 -19 -44 9 -10 9 -12 -3 -8 -17 6 -93 -119 -85 -139 2
-7 1 -13 -4 -13 -9 0 -56 -109 -65 -151 -4 -19 -1 -29 10 -33 14 -5 15 -4 4 9
-10 12 -10 15 1 15 17 0 51 102 43 125 -4 9 -1 15 8 15 7 0 28 30 45 68 18 37
65 117 105 177 39 61 71 114 69 120 -1 5 1 7 5 3 8 -9 230 202 226 215 -1 4 2
6 8 2 10 -6 102 51 108 67 2 4 10 8 17 8 7 0 15 9 18 20 3 11 4 20 4 19 -1 0
-17 -8 -34 -16z"/>
<path d="M2336 3970 c-59 -7 -126 -26 -126 -35 0 -2 3 -11 6 -20 6 -14 8 -13
21 5 8 11 22 20 31 19 11 0 12 -2 4 -6 -25 -10 -33 -41 -22 -85 l11 -43 217
-3 217 -3 14 33 c38 88 40 96 27 107 -33 28 -275 46 -400 31z"/>
<path d="M3170 3968 c0 -9 24 -31 53 -50 121 -82 212 -174 335 -339 108 -146
117 -165 182 -429 35 -144 69 -410 48 -379 -32 48 -138 276 -138 300 0 15 -5
31 -10 34 -7 4 -9 -3 -5 -22 l7 -28 -20 30 c-10 17 -65 110 -121 208 -91 157
-148 238 -169 237 -19 -1 -78 -111 -99 -183 -22 -77 -23 -88 -13 -197 6 -64 8
-164 4 -225 -4 -69 -3 -106 3 -100 24 25 83 116 113 172 18 34 41 70 51 79 18
16 21 16 54 -2 19 -10 35 -22 35 -26 0 -4 -15 1 -32 12 -18 11 -36 20 -40 20
-4 0 -26 -33 -49 -72 -23 -40 -59 -103 -80 -139 -22 -36 -39 -70 -39 -76 0 -7
42 11 93 38 50 27 100 49 111 49 10 0 -28 -24 -85 -54 -57 -30 -109 -63 -116
-73 -15 -23 6 -88 48 -151 16 -24 29 -52 29 -63 0 -26 27 -89 38 -89 5 0 17
18 27 40 32 70 47 80 123 78 l67 -1 -63 -6 c-53 -5 -67 -11 -85 -33 -49 -60
-63 -92 -56 -126 9 -43 13 -46 41 -28 37 24 153 42 180 27 13 -6 15 -9 6 -7
-22 7 -121 -11 -167 -30 l-36 -14 3 -113 c2 -61 12 -154 23 -206 10 -52 19
-108 19 -126 0 -26 6 -34 34 -48 19 -8 46 -32 61 -51 26 -34 27 -41 23 -116
-5 -93 10 -114 36 -47 20 52 86 122 131 138 28 10 39 25 66 83 33 70 33 73 34
221 1 148 1 151 42 269 l41 118 -39 110 c-22 61 -44 118 -49 128 -6 10 -10 65
-10 122 0 70 -5 112 -14 131 -8 15 -11 27 -7 27 30 0 -96 446 -147 520 -10 14
-24 38 -32 54 -8 16 -27 42 -42 59 -16 16 -28 32 -28 36 0 19 -158 164 -170
156 -6 -4 -10 0 -10 8 0 7 -37 42 -82 77 -46 35 -89 68 -95 73 -9 7 -13 5 -13
-5z"/>
<path d="M2172 3873 c-9 -33 -27 -63 -58 -95 -36 -38 -44 -53 -39 -70 4 -16 3
-19 -3 -10 -7 11 -11 8 -15 -10 -9 -33 -9 -190 1 -185 4 3 5 -21 4 -54 -3 -39
0 -59 7 -59 32 0 133 64 166 105 36 43 65 58 65 33 0 -7 -7 -32 -16 -55 -9
-24 -14 -46 -10 -50 3 -4 27 8 51 25 48 34 74 39 93 20 9 -9 12 -7 12 10 0 34
-27 81 -82 141 -60 66 -74 92 -113 205 -16 49 -35 91 -41 93 -5 2 -16 -18 -22
-44z"/>
<path d="M2746 3888 c-11 -54 -82 -190 -124 -238 -90 -102 -107 -147 -78 -200
14 -24 14 -24 26 20 30 112 43 115 96 25 36 -62 115 -135 146 -135 9 0 9 -3 1
-11 -15 -15 -103 39 -128 77 -9 14 -18 24 -20 22 -8 -9 43 -201 56 -208 42
-23 331 -46 414 -33 l50 8 8 55 c4 30 23 89 41 132 l34 78 -72 44 c-39 25
-123 65 -188 89 l-116 44 -15 -51 -16 -51 7 45 c13 82 7 153 -13 164 -55 33
-73 57 -80 106 -8 57 -20 65 -29 18z m111 -360 c-3 -8 -6 -5 -6 6 -1 11 2 17
5 13 3 -3 4 -12 1 -19z m-10 -50 c-3 -7 -5 -2 -5 12 0 14 2 19 5 13 2 -7 2
-19 0 -25z m-10 -40 c-3 -8 -6 -5 -6 6 -1 11 2 17 5 13 3 -3 4 -12 1 -19z
m-10 -50 c-3 -8 -6 -5 -6 6 -1 11 2 17 5 13 3 -3 4 -12 1 -19z"/>
<path d="M1930 3870 c-9 -6 -10 -10 -3 -10 6 0 15 5 18 10 8 12 4 12 -15 0z"/>
<path d="M2430 3765 c0 -8 0 -17 0 -20 0 -14 15 -4 22 14 5 15 3 21 -7 21 -8
0 -15 -7 -15 -15z"/>
<path d="M2517 3755 c3 -14 10 -25 15 -25 13 0 6 43 -8 47 -7 2 -10 -6 -7 -22z"/>
<path d="M3220 3755 c13 -14 26 -25 28 -25 3 0 -5 11 -18 25 -13 14 -26 25
-28 25 -3 0 5 -11 18 -25z"/>
<path d="M2894 3719 c3 -17 6 -35 6 -39 0 -4 35 -20 78 -35 73 -26 216 -95
274 -132 22 -14 29 -15 42 -4 9 8 16 19 16 25 0 16 -128 89 -232 133 -46 18
-107 45 -137 59 l-54 25 7 -32z"/>
<path d="M1566 3682 c-31 -32 -68 -76 -82 -98 -20 -32 -21 -34 -2 -9 13 16 52
60 87 97 35 38 62 68 59 68 -3 0 -31 -26 -62 -58z"/>
<path d="M1895 3642 c-82 -43 -172 -92 -198 -111 -44 -30 -47 -35 -34 -48 13
-14 21 -11 69 26 30 22 86 54 124 70 165 69 181 78 192 110 6 17 8 31 4 30 -4
0 -74 -35 -157 -77z"/>
<path d="M2420 3716 c0 -12 63 -37 87 -34 48 6 39 28 -10 28 -25 0 -52 3 -61
6 -9 3 -16 4 -16 0z"/>
<path d="M1587 3618 c-49 -54 -92 -108 -84 -108 2 0 37 36 76 80 40 44 69 80
65 80 -4 0 -30 -24 -57 -52z"/>
<path d="M1908 3589 c-64 -27 -144 -68 -177 -92 -58 -43 -59 -45 -44 -68 8
-13 0 -6 -19 15 l-34 39 -28 -29 c-79 -84 -359 -575 -421 -738 -17 -47 -19
-49 -27 -25 -9 21 -9 65 -4 277 1 38 0 41 -12 25 -10 -14 -13 -66 -11 -223 2
-183 0 -211 -18 -260 -18 -50 -19 -59 -7 -100 8 -25 14 -84 14 -132 l0 -88 35
0 c62 0 122 -44 145 -105 17 -45 15 -163 -4 -229 -10 -32 -35 -97 -57 -144
-21 -47 -37 -87 -35 -90 14 -14 67 13 87 44 53 87 130 109 203 59 21 -14 41
-23 45 -21 4 3 11 54 14 113 4 59 16 149 26 198 11 51 21 144 23 215 l3 125
-65 0 c-36 0 -81 -3 -100 -7 l-35 -7 35 16 c22 10 64 17 112 17 95 1 101 15
18 45 -32 12 -62 27 -66 32 -3 6 7 4 22 -4 33 -17 104 -38 104 -31 0 12 -133
66 -191 79 -38 8 -52 14 -35 14 44 1 146 -28 193 -55 l42 -24 19 27 c34 48 35
68 8 122 -14 27 -28 67 -32 89 -5 35 -4 41 16 47 12 4 24 5 27 2 2 -3 -5 -8
-17 -12 -18 -6 -20 -12 -14 -38 3 -18 15 -49 26 -71 l19 -38 26 23 c44 42 51
77 54 251 3 158 2 164 -23 213 -66 128 -138 276 -138 283 0 4 22 -34 48 -83
75 -140 115 -198 125 -179 17 30 -25 234 -59 292 l-16 27 21 -25 c11 -14 27
-45 35 -70 11 -37 18 -46 42 -51 29 -7 29 -7 3 -8 -26 -1 -26 -2 -16 -41 11
-39 12 -40 57 -41 25 0 65 -4 90 -9 35 -7 25 -8 -42 -4 l-86 5 -10 -53 c-6
-29 -13 -169 -17 -311 -3 -143 -15 -336 -25 -434 -16 -138 -19 -210 -13 -334
l6 -159 39 0 c53 0 78 -27 78 -85 l0 -45 39 0 c34 0 40 4 51 30 7 17 22 37 34
45 23 17 122 20 131 5 4 -6 11 -8 16 -4 16 9 0 24 -27 24 -33 0 -64 34 -64 69
0 43 30 73 80 80 39 6 43 9 59 51 12 33 25 49 49 60 24 11 31 20 28 35 -3 11
-8 66 -12 123 -4 56 -9 102 -11 102 -3 0 -17 -8 -31 -18 -70 -48 -72 -38 -3
12 46 34 49 40 53 86 4 58 5 58 -105 3 -97 -48 -76 -27 26 27 l85 45 7 90 c9
104 8 420 -1 482 -4 24 -10 40 -15 37 -5 -3 -9 0 -9 5 0 6 4 11 9 11 5 0 5 15
1 34 -4 19 -5 37 -2 40 3 4 -25 6 -62 6 -37 0 -99 5 -138 12 -55 9 -73 9 -76
0 -2 -7 -8 -12 -14 -12 -7 0 -6 5 1 14 15 18 57 26 69 14 5 -5 56 -10 113 -11
l104 -2 3 68 c2 37 0 67 -4 67 -3 0 -25 -17 -49 -38 -40 -35 -120 -70 -132
-59 -2 3 10 8 27 12 17 4 57 31 89 61 49 45 59 60 64 96 3 24 9 53 13 65 5 18
-4 13 -42 -22 -65 -60 -148 -102 -169 -85 -8 7 -15 20 -15 29 0 13 -17 20 -77
31 -43 8 -104 14 -136 14 -96 -1 -52 11 64 17 136 7 141 11 137 101 l-3 65
-117 -48z m40 -356 c-10 -2 -26 -2 -35 0 -10 3 -2 5 17 5 19 0 27 -2 18 -5z
m85 -110 c-7 -2 -21 -2 -30 0 -10 3 -4 5 12 5 17 0 24 -2 18 -5z m44 -9 c-3
-3 -12 -4 -19 -1 -8 3 -5 6 6 6 11 1 17 -2 13 -5z m131 -11 c-21 -2 -55 -2
-75 0 -21 2 -4 4 37 4 41 0 58 -2 38 -4z m40 -101 c-13 -16 -37 -69 -53 -117
-25 -75 -38 -97 -80 -139 -28 -28 -78 -66 -112 -83 -68 -37 -108 -45 -53 -12
19 12 75 62 123 111 68 69 96 106 119 157 16 36 39 76 50 89 30 32 34 27 6 -6z
m-345 -742 c-2 -198 -10 -254 -38 -258 -14 -2 -16 0 -7 6 15 10 30 134 35 295
l4 117 -27 0 -27 0 -7 -157 c-4 -87 -11 -176 -16 -198 -9 -39 -9 -39 -4 10 2
28 7 119 11 203 l6 153 36 -3 36 -3 -2 -165z m194 -152 c-3 -8 -6 -5 -6 6 -1
11 2 17 5 13 3 -3 4 -12 1 -19z m-267 -111 c11 -5 9 -6 -4 -4 -11 1 -21 9 -23
17 -3 10 -2 11 4 4 4 -6 15 -14 23 -17z"/>
<path d="M1416 3488 c-48 -77 -99 -168 -92 -168 3 0 17 21 32 48 26 46 53 90
88 145 10 15 15 27 12 27 -3 0 -21 -24 -40 -52z"/>
<path d="M2603 3518 c-6 -7 -16 -33 -23 -58 -19 -78 -19 -78 -41 -51 -23 28
-23 22 0 -94 15 -78 21 -90 37 -87 10 1 40 5 67 8 26 4 47 8 47 9 0 1 -11 54
-24 117 -27 130 -46 177 -63 156z"/>
<path d="M2333 3415 l-63 -45 0 -75 0 -75 75 0 75 0 0 84 c0 46 2 91 5 99 3 7
-2 24 -12 36 l-18 22 -62 -46z"/>
<path d="M3581 3260 c0 -8 4 -22 9 -30 12 -18 12 -2 0 25 -6 13 -9 15 -9 5z"/>
<path d="M2608 3217 c-39 -8 -48 -14 -48 -31 0 -39 11 -44 72 -32 57 10 68 21
60 59 -4 19 -14 19 -84 4z"/>
<path d="M1266 3205 c-9 -26 -7 -32 5 -12 6 10 9 21 6 23 -2 3 -7 -2 -11 -11z"/>
<path d="M2710 3187 c0 -35 1 -36 55 -48 30 -7 53 -14 50 -17 -2 -2 -25 1 -51
7 -57 14 -59 12 -68 -71 -4 -32 -21 -100 -38 -151 -28 -84 -30 -100 -25 -187
3 -54 19 -153 37 -230 l32 -135 -9 -245 c-4 -135 -7 -271 -5 -302 3 -54 5 -58
27 -58 13 0 27 5 31 11 4 7 28 10 65 7 l57 -4 7 34 c9 47 24 69 65 95 61 38
131 15 171 -57 12 -23 23 -42 25 -44 1 -2 27 2 58 10 l56 13 2 130 c3 170 1
208 -24 540 -20 263 -27 400 -28 573 l0 73 -52 -5 -53 -5 53 10 c38 8 52 15
52 27 -1 39 -13 44 -93 35 -71 -9 -229 2 -354 22 l-43 8 0 -36z m343 -76 c-22
-4 -76 -4 -120 -1 -73 7 -70 7 42 7 76 0 105 -2 78 -6z m60 -107 c15 -5 17
-23 17 -192 0 -103 -3 -197 -6 -210 -4 -14 -36 -43 -82 -74 l-75 -51 -96 39
c-53 20 -101 42 -108 48 -6 6 -14 31 -17 56 l-5 45 12 -42 c7 -23 17 -46 22
-51 16 -14 163 -72 182 -72 24 0 94 50 86 63 -3 5 -1 7 5 3 6 -3 22 -1 37 6
26 12 26 13 23 99 -2 48 0 85 5 82 4 -2 7 11 7 29 l0 32 -21 -26 -22 -27 -146
5 c-154 6 -187 14 -195 48 -3 12 -3 -17 -2 -64 3 -59 1 -76 -5 -55 -9 32 -20
301 -12 309 6 6 374 6 396 0z m-254 -304 c46 -30 73 -40 104 -41 39 -1 40 -1
14 -9 -33 -10 -68 1 -112 34 -16 13 -43 30 -60 39 -16 9 -25 16 -19 17 6 0 39
-18 73 -40z m-180 -41 c12 -31 45 -83 73 -115 91 -104 94 -111 20 -39 -71 68
-113 134 -128 200 -10 45 9 20 35 -46z m192 -236 c13 -16 12 -17 -3 -4 -10 7
-18 15 -18 17 0 8 8 3 21 -13z m277 -80 l-2 -78 -3 73 -4 74 -27 -7 c-15 -4
-29 -9 -31 -11 -5 -5 17 -333 26 -375 4 -20 13 -31 30 -35 13 -4 26 -4 30 -1
3 3 0 60 -7 127 -7 66 -11 123 -8 125 3 3 11 -56 18 -130 7 -74 10 -138 7
-142 -13 -13 -72 13 -84 37 -16 34 -33 198 -33 314 0 103 -2 100 68 105 21 1
22 -2 20 -76z"/>
<path d="M2738 2994 c-11 -20 -9 -142 3 -150 8 -5 10 -3 4 6 -5 9 -4 11 4 6 6
-4 9 -12 5 -17 -3 -5 2 -21 10 -34 16 -25 18 -25 166 -25 140 0 150 1 160 20
6 11 8 26 4 32 -4 6 -3 8 3 5 6 -4 10 17 11 58 l1 64 -37 4 -37 4 38 1 c20 1
37 7 37 12 0 6 -41 10 -102 10 -57 0 -139 3 -184 6 -45 4 -83 3 -86 -2z m85
-21 c-7 -2 -19 -2 -25 0 -7 3 -2 5 12 5 14 0 19 -2 13 -5z m90 -10 c-7 -2 -21
-2 -30 0 -10 3 -4 5 12 5 17 0 24 -2 18 -5z m64 -9 c-3 -3 -12 -4 -19 -1 -8 3
-5 6 6 6 11 1 17 -2 13 -5z m-9 -83 c-2 -21 -8 -26 -32 -26 -17 0 -31 6 -34
15 -5 13 -3 13 11 1 9 -7 24 -11 32 -7 22 8 19 47 -5 53 -11 3 -17 10 -14 15
11 17 45 -25 42 -51z m-26 14 c0 -5 -5 -11 -11 -13 -6 -2 -11 4 -11 13 0 9 5
15 11 13 6 -2 11 -8 11 -13z"/>
<path d="M2270 3188 c1 -61 8 -68 75 -68 l63 0 4 33 c5 46 -11 57 -82 57 -56
0 -60 -2 -60 -22z"/>
<path d="M3601 3205 c0 -5 6 -21 14 -35 8 -14 14 -20 14 -15 0 6 -6 21 -14 35
-8 14 -14 21 -14 15z"/>
<path d="M2589 3133 c-11 -3 -24 -47 -48 -172 l-33 -168 18 -189 c11 -112 19
-273 19 -395 l0 -206 60 -10 c33 -6 61 -9 63 -8 1 1 5 92 9 201 5 192 4 203
-21 301 -14 56 -31 147 -38 201 -11 99 -11 100 20 198 27 86 52 201 52 242 0
12 -64 15 -101 5z"/>
<path d="M1140 3098 c0 -18 5 -28 15 -28 19 0 19 11 0 36 -14 18 -14 18 -15
-8z"/>
<path d="M2283 3093 c14 -47 18 -366 7 -472 -6 -62 -10 -114 -8 -117 2 -2 20
10 39 26 53 46 60 34 7 -13 -39 -34 -49 -50 -54 -87 -7 -42 -6 -44 10 -31 12
10 15 22 11 39 -10 41 50 85 70 52 4 -7 -2 -9 -18 -5 -32 8 -56 -27 -36 -51
18 -22 53 -13 57 14 2 13 20 45 39 70 l36 47 -7 245 c-7 239 -16 309 -32 245
-3 -17 -14 -38 -23 -48 -9 -11 -21 -31 -28 -45 l-13 -27 5 33 c3 23 0 34 -10
38 -21 8 -28 40 -15 65 10 17 18 20 47 16 24 -4 33 -2 30 6 -2 7 -28 13 -61
15 -52 3 -57 1 -53 -15z m111 -309 c21 -20 20 -48 0 -69 -20 -19 -53 -16 -67
6 -14 22 -1 67 21 72 29 8 30 8 46 -9z m-34 -330 c0 -8 -9 -14 -20 -14 -22 0
-28 26 -7 33 16 6 27 -1 27 -19z"/>
<path d="M2347 2779 c-39 -22 -4 -79 35 -58 10 5 18 18 18 29 0 25 -30 41 -53
29z m38 -29 c0 -8 -8 -16 -17 -18 -13 -2 -18 3 -18 18 0 15 5 20 18 18 9 -2
17 -10 17 -18z"/>
<path d="M1222 3039 c-12 -50 -16 -117 -7 -108 6 7 26 151 22 155 -2 2 -9 -19
-15 -47z"/>
<path d="M2326 3065 c-10 -26 -7 -34 13 -45 30 -15 53 -2 49 29 -2 20 -9 27
-29 29 -17 2 -29 -3 -33 -13z m50 -6 c10 -17 -13 -36 -27 -22 -12 12 -4 33 11
33 5 0 12 -5 16 -11z"/>
<path d="M1145 3050 c-3 -5 -1 -10 4 -10 6 0 11 5 11 10 0 6 -2 10 -4 10 -3 0
-8 -4 -11 -10z"/>
<path d="M1203 2865 c0 -22 2 -30 4 -17 2 12 2 30 0 40 -3 9 -5 -1 -4 -23z"/>
<path d="M2408 2495 c-10 -13 -18 -30 -18 -37 0 -23 -25 -51 -47 -53 -11 0
-32 -10 -46 -22 -26 -20 -27 -25 -27 -111 0 -104 9 -182 21 -182 5 0 9 9 9 20
0 28 40 46 69 30 16 -8 22 -19 20 -38 -1 -15 3 -40 10 -55 6 -16 12 -36 13
-45 1 -9 4 102 8 248 3 146 6 266 5 267 0 0 -8 -9 -17 -22z"/>
<path d="M3903 2390 c-48 -141 -63 -222 -63 -335 0 -112 -1 -117 -35 -185
l-35 -70 64 0 c53 0 66 3 70 18 29 99 28 658 -1 572z"/>
<path d="M1080 2298 c0 -102 2 -118 16 -118 14 0 16 13 12 98 -2 53 -9 106
-16 117 -9 16 -11 -3 -12 -97z"/>
<path d="M2327 2129 c-18 -11 -24 -39 -7 -39 6 0 10 7 10 16 0 9 7 14 18 12
10 -2 16 -11 14 -21 -2 -9 2 -17 8 -17 5 0 10 9 10 20 0 25 -30 41 -53 29z"/>
<path d="M1105 2118 c-122 -67 -190 -299 -164 -553 l11 -100 -46 -78 c-84
-142 -111 -167 -178 -167 -66 0 -104 52 -139 187 -21 85 -26 253 -9 344 14 78
69 181 101 193 56 19 128 -26 160 -101 13 -31 24 -43 39 -43 30 0 28 80 -4
134 -67 115 -232 112 -331 -6 -39 -46 -83 -143 -96 -213 -32 -169 46 -388 169
-482 38 -29 51 -33 103 -33 34 0 73 7 89 15 34 17 85 79 127 154 l30 53 19
-52 c56 -155 179 -184 256 -60 17 27 32 50 34 50 1 0 11 -16 23 -35 25 -43 80
-69 127 -60 71 13 123 121 110 229 l-6 51 90 0 90 0 0 -65 c0 -123 30 -175
100 -175 54 0 84 32 137 143 24 50 46 92 49 92 4 0 3 -46 0 -102 -8 -118 6
-230 33 -268 23 -33 73 -38 99 -12 11 11 32 57 47 103 15 46 30 88 32 92 3 5
15 -21 28 -58 28 -83 50 -106 109 -112 72 -9 105 21 151 133 l23 55 7 -38 c8
-47 42 -125 58 -135 21 -14 63 -8 80 10 17 18 71 172 82 236 9 46 21 46 30 -1
33 -175 140 -254 230 -170 34 31 51 81 81 235 4 20 9 22 32 17 15 -3 48 -6 74
-7 l46 0 6 -42 c9 -55 47 -135 80 -165 34 -32 121 -41 158 -17 14 9 50 50 79
91 29 41 56 75 60 75 3 0 9 -18 13 -39 16 -104 100 -91 162 25 10 19 21 34 24
34 4 0 11 -44 18 -98 17 -147 48 -202 113 -202 39 0 76 43 131 155 l50 100 -7
-69 c-4 -38 -9 -75 -12 -81 -5 -15 27 -29 38 -18 12 13 47 208 59 333 19 194
13 178 68 173 26 -3 50 -8 54 -12 4 -3 0 -37 -9 -76 -11 -47 -16 -124 -17
-230 -1 -156 0 -161 27 -217 30 -60 47 -72 106 -70 66 3 136 103 199 282 44
129 46 140 22 140 -11 0 -20 -1 -20 -3 0 -12 -91 -250 -109 -284 -23 -45 -78
-113 -91 -113 -35 0 -42 226 -14 428 9 71 15 136 11 145 -4 10 -27 17 -79 22
-40 4 -95 14 -121 22 -35 11 -51 13 -59 5 -6 -6 -16 -71 -22 -144 -12 -132
-12 -134 -65 -238 -75 -147 -120 -215 -133 -202 -7 7 -7 82 1 252 7 132 9 245
6 250 -10 17 -176 9 -222 -10 -49 -22 -90 -78 -109 -150 -9 -35 -36 -80 -90
-150 -103 -135 -127 -146 -158 -70 -20 50 -39 171 -29 181 4 4 28 19 53 32 85
45 117 153 64 216 -31 37 -73 41 -121 11 -46 -28 -81 -86 -101 -169 l-17 -73
-63 4 c-37 2 -67 9 -71 17 -5 7 -11 50 -14 96 -9 128 -46 193 -101 179 -29 -7
-56 -49 -56 -86 0 -41 33 -117 72 -164 21 -25 38 -51 38 -58 0 -36 -23 -144
-41 -190 -21 -57 -44 -76 -65 -54 -18 18 -60 184 -74 288 -18 134 -16 130 -54
130 l-34 0 -17 -72 c-13 -59 -68 -270 -91 -350 -9 -31 -33 -20 -41 20 -4 20
-8 128 -7 240 l1 202 -33 0 c-30 0 -34 -4 -44 -39 -6 -22 -17 -86 -24 -143
-20 -145 -91 -334 -136 -358 -16 -8 -22 -6 -34 12 -37 59 -45 213 -25 490 12
176 13 178 99 178 113 0 210 12 210 26 0 11 -30 14 -145 14 l-145 0 0 51 0 50
-42 -3 c-40 -3 -42 -5 -58 -53 -16 -49 -17 -50 -70 -60 -71 -14 -78 -35 -12
-35 l50 0 -6 -206 -5 -207 -46 -134 c-25 -75 -50 -134 -56 -132 -11 4 -13 166
-5 399 l5 145 -35 0 -35 0 -65 -160 c-74 -180 -92 -216 -115 -235 -35 -29 -40
0 -39 227 l2 215 -40 -5 c-22 -3 -42 -8 -45 -11 -3 -3 -8 -50 -11 -105 l-5
-99 -29 -6 c-54 -11 -114 13 -178 70 -34 30 -69 54 -80 54 -45 0 -116 -100
-135 -190 -11 -51 -67 -170 -99 -207 -60 -71 -99 -25 -127 146 -10 64 -10 64
25 116 50 76 112 203 142 292 21 63 25 91 22 151 -3 69 -6 76 -36 103 -34 31
-72 37 -107 17z m72 -59 c18 -33 16 -143 -3 -214 -19 -74 -91 -240 -110 -256
-9 -7 -14 -8 -13 -3 1 5 -1 17 -6 28 -12 28 3 211 24 302 22 89 37 130 60 157
18 22 32 18 48 -14z m1847 -305 c3 -9 6 -30 5 -47 l-1 -32 -13 30 c-16 35 -19
65 -6 65 5 0 12 -7 15 -16z m416 -53 c0 -62 -41 -130 -77 -131 -9 0 -11 10 -7
33 10 56 35 141 46 155 19 22 38 -7 38 -57z m410 -6 c17 -21 7 -51 -56 -179
-62 -124 -70 -136 -92 -136 -12 0 -14 13 -10 85 7 98 39 177 89 220 35 29 51
31 69 10z m-2388 -118 c48 -89 18 -287 -43 -287 -26 0 -49 54 -49 117 0 55 23
172 40 203 14 26 25 19 52 -33z"/>
<path d="M2630 1843 c-78 -12 -90 -15 -90 -25 0 -6 13 -8 33 -5 17 2 47 -1 65
-9 32 -13 32 -13 32 17 0 16 -3 28 -7 28 -5 -1 -19 -3 -33 -6z"/>
<path d="M2400 1821 c0 -5 7 -14 15 -21 20 -16 19 -39 -2 -62 -15 -17 -15 -18
5 -18 19 0 22 6 22 39 0 22 -3 46 -6 55 -6 17 -34 22 -34 7z"/>
<path d="M2396 1785 c4 -8 1 -22 -6 -30 -10 -12 -10 -15 3 -15 9 0 19 5 22 10
8 13 -3 50 -15 50 -5 0 -7 -7 -4 -15z"/>
<path d="M3181 1787 l-43 -10 6 -45 c3 -25 6 -62 6 -83 0 -31 4 -39 19 -39 14
0 20 10 24 38 4 21 18 60 32 87 36 72 37 71 -44 52z"/>
<path d="M2698 1735 c-3 -5 -9 -37 -12 -70 l-5 -60 14 55 c14 53 16 95 3 75z"/>
<path d="M1871 1693 c0 -10 -3 -52 -6 -93 -5 -49 -4 -72 2 -65 10 9 73 157 73
169 0 3 -15 6 -34 6 -27 0 -35 -4 -35 -17z"/>
<path d="M2380 1651 c0 -33 -3 -66 -6 -75 -5 -13 1 -16 30 -16 l36 0 0 75 0
75 -30 0 c-30 0 -30 0 -30 -59z"/>
<path d="M1191 1601 c-11 -7 -11 -17 -1 -60 6 -28 15 -53 19 -56 6 -3 41 99
41 120 0 8 -44 5 -59 -4z"/>
<path d="M3516 1565 c-15 -19 -43 -43 -63 -53 l-35 -19 27 -21 c15 -12 31 -22
36 -22 15 0 91 109 87 126 -5 30 -24 26 -52 -11z"/>
<path d="M2920 1576 c0 -9 5 -16 10 -16 6 0 10 4 10 9 0 6 -4 13 -10 16 -5 3
-10 -1 -10 -9z"/>
</g>
</svg>
